<?xml version="1.0" encoding="utf-8"?>
<!DOCTYPE svg PUBLIC "-//W3C//DTD SVG 1.1//EN" "http://www.w3.org/Graphics/SVG/1.1/DTD/svg11.dtd">
<svg version="1.1" id="Capa_1" xmlns="http://www.w3.org/2000/svg" xmlns:xlink="http://www.w3.org/1999/xlink" x="0px" y="0px"
	 width="454.477px" height="564.723px" viewBox="0 0 454.477 564.723" enable-background="new 0 0 454.477 564.723"
	 xml:space="preserve">
<g>
	<g>
		<linearGradient id="SVGID_1_" gradientUnits="userSpaceOnUse" x1="78.2334" y1="515.4375" x2="361.4653" y2="515.4375">
			<stop  offset="0" style="stop-color:#FEE802"/>
			<stop  offset="0.5566" style="stop-color:#9A692D"/>
			<stop  offset="1" style="stop-color:#ECBA09"/>
		</linearGradient>
		<path fill="#fee802" d="M78.233,512.009c0,16.356,63.4,29.62,141.616,29.62c78.207,0,141.616-13.264,141.616-29.62v-22.762
			H78.233V512.009z"/>
		<path fill="#FEE802" d="M361.465,489.247c0,16.362-63.41,29.62-141.616,29.62c-78.216,0-141.616-13.258-141.616-29.62
			s63.4-29.619,141.616-29.619C298.056,459.628,361.465,472.885,361.465,489.247z"/>
		<linearGradient id="SVGID_2_" gradientUnits="userSpaceOnUse" x1="222.9409" y1="489.2471" x2="361.4653" y2="489.2471">
			<stop  offset="0" style="stop-color:#FEE802"/>
			<stop  offset="1" style="stop-color:#ECBA09"/>
		</linearGradient>
		<path fill="#fee802" d="M222.941,459.634v59.227c76.785-0.343,138.524-13.474,138.524-29.613
			C361.465,473.102,299.726,459.978,222.941,459.634z"/>
		<path fill="#FBDF0B" d="M308.499,489.247c0,10.242-39.684,18.538-88.649,18.538s-88.649-8.296-88.649-18.538
			s39.684-18.544,88.649-18.544S308.499,479.005,308.499,489.247z"/>
		<path fill="#B38C39" d="M219.849,466.485c-60.104,0-108.815,10.191-108.815,22.762s48.711,22.762,108.815,22.762
			c60.102,0,108.815-10.191,108.815-22.762S279.951,466.485,219.849,466.485z M219.849,509.859
			c-54.427,0-98.547-9.225-98.547-20.612s44.121-20.618,98.547-20.618c54.424,0,98.545,9.23,98.545,20.618
			S274.273,509.859,219.849,509.859z"/>
	</g>
	<path fill="#FFFFFF" d="M157.346,526.984c-21.41-9.339-22.819-8.875-34.464,11.375c9.336-21.414,8.871-22.819-11.378-34.461
		c21.407,9.332,22.819,8.867,34.461-11.381C136.633,513.931,137.098,515.336,157.346,526.984z"/>
</g>
<path fill="#4C141A" class='hair' d="M317.772,252.385c0,0,28.456-14.167,38.227-34.257c9.771-20.084-27.145-2.169-27.145-2.169L317.772,252.385z
	"/>
<path fill="#4C141A" class='hair' d="M127.103,252.385c0,0-28.456-14.167-38.227-34.257c-9.771-20.084,27.145-2.169,27.145-2.169L127.103,252.385
	z"/>
<rect x="189.726" y="442.044" fill="#F7C0A2" class='skin' width="28.929" height="45.193"/>
<rect x="226.369" y="439.194" fill="#F7C0A2" class='skin' width="28.929" height="45.192"/>
<path fill="#DB6D06" class='pants' d="M182.938,386.176l-4.183,66.046l40.307,3.257c0,0-0.814-28.5,3.054-28.5s3.451,28.5,3.451,28.5l42.76-2.442
	l-3.257-65.143L182.938,386.176z"/>
<path fill="#F98011" class='shirt' d="M183.234,427.387c0,0,15.472-1.443,15.879-32.272c0.407-30.834-16.175-8.938-16.175-8.938l-2.608,41.21
	H183.234z"/>
<path fill="#F98011" class='shirt' d="M263.432,427.387c0,0-15.471-1.443-15.878-32.272c-0.407-30.834,16.178-8.938,16.178-8.938l2.608,41.21
	H263.432z"/>
<path fill="#F37707" class='shirt' d="M261.813,339.037l17.915-6.922c-12.214-40.307-40.072-47.312-40.072-47.312s-16.928,2.119-33.045,0
	c-16.114-2.125-42.104,44.462-42.104,44.462l21.579,9.771l-7.329,43.971c0,0,15.185,13.009,34.604,16.331V301.58h6.11v-11.591h6.098
	v11.591h5.694v97.918c19.136-2.449,33.809-11.604,33.809-11.604L261.813,339.037z"/>
<path fill="#FEFFFF" d="M225.567,301.58v-11.591h-6.098v11.591h-6.11v97.759c2.84,0.489,5.77,0.77,8.757,0.77
	c3.133,0,6.187-0.229,9.145-0.61V301.58H225.567z"/>
<path fill="#F7C0A2" class='skin' d="M359.486,168.24c0.006-0.478,0.042-0.948,0.042-1.425c0-65.658-61.062-118.886-136.393-118.886
	S86.741,101.157,86.741,166.815c0,0.089,0.009,0.178,0.009,0.273c-9.199,5.013-15.452,14.854-15.452,26.19
	c0,16.413,13.111,29.722,29.289,29.722c0.764,0,1.514-0.058,2.265-0.114c20.513,33.366,58.759,57.178,103.758,61.917
	c4.704,3.271,10.392,5.185,16.521,5.185c6.133,0,11.82-1.915,16.524-5.185c44.044-4.637,81.61-27.558,102.419-59.818
	c2.685,0.821,5.521,1.272,8.467,1.272c16.177,0,29.292-13.309,29.292-29.721C379.833,183.292,371.287,172.076,359.486,168.24z"/>
<path fill="#4C141A" class='hair' d="M81.312,163.297c0,0-6.515-61.338,51.03-105.854c0,0,1.084-8.144-16.286-6.515
	c0,0,4.342-10.315,25.514-7.599c0,0-2.169-13.576,17.914-19.002c0,0-16.286,23.344-5.97,19.002
	c10.315-4.345,21.966-19.002,72.055-19.002s142.917,36.917,142.917,148.741c0,0-14.657-2.169-26.057-26.598
	c0,0-14.657-27.145-27.686-23.888c0,0,6.515,8.684,4.886,14.657c0,0,5.43-4.886-36.373-1.629
	c-41.799,3.257-95.542,19.549-118.342,7.603c-22.8-11.941-35.285-32.031-38.001-24.97c-2.713,7.055-3.798,13.569-3.798,13.569
	s-2.713-20.083-8.143-13.569c-5.43,6.515-13.572,27.686-10.859,41.255c2.716,13.569-5.426-13.575-5.97-4.345s-0.544,9.23-0.544,9.23
	l-16.508,6.743L81.312,163.297z"/>
<g>
	<g>
		<path d="M120.761,158.121c1.674,5.46,7.608-0.344,9.924-1.787c9.637-6.005,18.371-1.938,25.048,6.368
			c2.424,3.017,6.642-1.258,4.242-4.242c-5.668-7.052-13.661-12.698-23.139-10.905c-3.28,0.621-6.313,1.907-9.18,3.599
			c-1.191,0.703-2.316,1.519-3.426,2.342c-1.934,1.433-1.785,0.493,0.249,1.025c0.698,0.699,1.397,1.397,2.095,2.096
			c-0.009-0.03-0.019-0.06-0.027-0.09C125.417,152.838,119.624,154.412,120.761,158.121L120.761,158.121z"/>
	</g>
</g>
<g>
	<g>
		<path d="M295.321,159.925c0.008,0.014,0.015,0.028,0.023,0.042c0.61,1.119,2.156,1.806,3.388,1.378
			c3.195-1.108,5.781-5.175,8.665-7.014c8.95-5.707,16.8,0.09,22.124,7.763c2.189,3.155,7.393,0.16,5.181-3.028
			c-5.668-8.168-13.385-14.904-23.9-12.675c-3.578,0.758-6.933,2.857-9.741,5.122c-1.083,0.873-2.114,1.79-3.113,2.757
			c-0.821,0.795-2.808,1.982-0.811,1.29c1.129,0.459,2.259,0.919,3.388,1.379c-0.007-0.014-0.015-0.028-0.023-0.042
			C298.649,153.5,293.468,156.527,295.321,159.925L295.321,159.925z"/>
	</g>
</g>
<path fill="#AD1F29" d="M199.113,244.58h51.3c0,0-9.364,22.8-25.65,22.8S199.113,244.58,199.113,244.58z"/>
<path fill="#DB6D08" d="M226.369,495.38c0,0,4.071-30.332,25.65-30.332s24.836,30.332,24.836,30.332S255.276,514.516,226.369,495.38
	z"/>
<path fill="#DB6D08" d="M168.17,495.38c0,0,4.071-30.332,25.65-30.332s24.835,30.332,24.835,30.332S197.077,514.516,168.17,495.38z"
	/>
<path fill="#F37803" class='shirt' d="M168.17,492.123c0,0,4.071-30.332,25.65-30.332s24.835,30.332,24.835,30.332S197.077,511.259,168.17,492.123
	z"/>
<path fill="#F37803" class='shirt' d="M226.369,492.123c0,0,4.071-30.332,25.65-30.332s24.836,30.332,24.836,30.332
	S255.276,511.259,226.369,492.123z"/>
<path fill="#F7C0A2" class='skin' d="M169.763,331.396c0,0-8.012,22.533-13.044,58.266c0,0-3.12,7.901-3.139,20.885
	c0,0.369,0.121,0.731,0.209,1.101c2.793,11.667,3.607,3.251,3.337-1.361s0.735-7.736,0.735-7.736l1.628,14.581
	c0,0,4.354,6.998,3.531-12.538c0,0-0.261,8.264,0.824,12.411c1.167,4.453,3.667,4.339,3.248-10.242c0,0,3.257,12.214,8.414,10.045
	c5.156-2.176,0.811-3.257-1.899-7.603c-2.717-4.345-4.612-17.373-1.902-17.641c2.716-0.273,9.173,0.268,9.173,0.268
	s6.572-7.596-4.828-7.87c-11.4-0.273-5.16-20.357-4.345-22.526c0.814-2.176,7.602-25.713,7.602-25.713L169.763,331.396z"/>
<g>
	<g>
		<path fill="#BB591B" d="M192.352,343.481c1.446,1.782,3.416,3.077,5.511,3.956c4.336,1.818,8.509-0.7,11.268-3.956
			c1.243-1.466-0.869-3.599-2.121-2.121c-2.438,2.876-5.386,4.649-9.031,2.863c-1.338-0.656-2.566-1.706-3.505-2.863
			C193.253,339.857,191.145,341.994,192.352,343.481L192.352,343.481z"/>
	</g>
</g>
<g>
	<g>
		<path fill="#BB591B" d="M239.158,343.481c1.446,1.782,3.416,3.077,5.511,3.956c4.336,1.818,8.509-0.7,11.268-3.956
			c1.243-1.466-0.869-3.599-2.121-2.121c-2.438,2.876-5.386,4.649-9.031,2.863c-1.338-0.656-2.566-1.706-3.505-2.863
			C240.059,339.857,237.95,341.994,239.158,343.481L239.158,343.481z"/>
	</g>
</g>
<path fill="#FBDF0B" d="M199.113,336.441c0,1.202-1.215,2.176-2.713,2.176s-2.713-0.974-2.713-2.176
	c0-1.196,1.215-2.169,2.713-2.169S199.113,335.245,199.113,336.441z"/>
<path fill="#FBDF0B" d="M253.142,338.617c0,1.196-1.215,2.169-2.713,2.169s-2.713-0.973-2.713-2.169
	c0-1.203,1.215-2.176,2.713-2.176S253.142,337.415,253.142,338.617z"/>
<line fill="none" stroke="#BB591B" stroke-width="3" stroke-miterlimit="10" x1="164.505" y1="329.266" x2="186.084" y2="339.037"/>
<path fill="#F7C0A2" class='skin' d="M127.103,193.699c0,16.184-12.495,29.302-27.899,29.302c-15.411,0-27.905-13.118-27.905-29.302
	c0-16.196,12.494-29.314,27.905-29.314C114.608,164.385,127.103,177.503,127.103,193.699z"/>
<path fill="#F7C0A2" class='skin' d="M379.833,196.957c0,16.184-12.491,29.301-27.899,29.301c-15.411,0-27.902-13.117-27.902-29.301
	c0-16.197,12.491-29.314,27.902-29.314C367.342,167.642,379.833,180.76,379.833,196.957z"/>
<radialGradient id="SVGID_3_" cx="149.6719" cy="198.0156" r="26.016" gradientUnits="userSpaceOnUse">
	<stop  offset="0.5468" style="stop-color:#3766AC"/>
	<stop  offset="1" style="stop-color:#1C2B6F"/>
</radialGradient>
<path fill="#3664aa" stroke="#000000" stroke-miterlimit="10" d="M172.241,198.019c0,16.044-10.105,29.054-22.568,29.054
	c-12.466,0-22.571-13.01-22.571-29.054c0-16.05,10.105-29.06,22.571-29.06C162.136,168.959,172.241,181.969,172.241,198.019z"/>
<path d="M162.25,199.444c0,7.163-4.51,12.971-10.077,12.971s-10.077-5.808-10.077-12.971c0-7.169,4.51-12.978,10.077-12.978
	S162.25,192.274,162.25,199.444z"/>
<path fill="#FFFFFF" d="M162.333,189.724c0,3.976-3.219,7.194-7.192,7.194s-7.192-3.219-7.192-7.194c0-3.97,3.219-7.195,7.192-7.195
	S162.333,185.754,162.333,189.724z"/>
<circle fill="#FFFFFF" cx="155.141" cy="211.843" r="4.479"/>
<radialGradient id="SVGID_4_" cx="302.6748" cy="198.0156" r="26.016" gradientUnits="userSpaceOnUse">
	<stop  offset="0.5468" style="stop-color:#3766AC"/>
	<stop  offset="1" style="stop-color:#1C2B6F"/>
</radialGradient>
<path fill="#3664aa" stroke="#000000" stroke-miterlimit="10" d="M325.244,198.019c0,16.044-10.105,29.054-22.567,29.054
	c-12.466,0-22.571-13.01-22.571-29.054c0-16.05,10.105-29.06,22.571-29.06C315.139,168.959,325.244,181.969,325.244,198.019z"/>
<path d="M315.253,199.444c0,7.163-4.51,12.971-10.077,12.971s-10.077-5.808-10.077-12.971c0-7.169,4.51-12.978,10.077-12.978
	S315.253,192.274,315.253,199.444z"/>
<path fill="#FFFFFF" d="M315.336,189.724c0,3.976-3.219,7.194-7.191,7.194c-3.973,0-7.192-3.219-7.192-7.194
	c0-3.97,3.219-7.195,7.192-7.195C312.117,182.528,315.336,185.754,315.336,189.724z"/>
<circle fill="#FFFFFF" cx="308.145" cy="211.843" r="4.479"/>
<path fill="#F7C0A2" class='skin' d="M276.355,332.115c0,0,8.111,21.814,13.143,57.547c0,0,3.12,7.901,3.139,20.885
	c0,0.369-0.121,0.731-0.21,1.101c-2.792,11.667-3.607,3.251-3.336-1.361s-0.735-7.736-0.735-7.736l-1.628,14.581
	c0,0-4.354,6.998-3.531-12.538c0,0,0.261,8.264-0.824,12.411c-1.167,4.453-3.667,4.339-3.248-10.242c0,0-3.257,12.214-8.414,10.045
	c-5.156-2.176-0.811-3.257,1.899-7.603c2.717-4.345,4.612-17.373,1.902-17.641c-2.716-0.273-9.173,0.268-9.173,0.268
	s-6.572-7.596,4.828-7.87c11.4-0.273,5.16-20.357,4.345-22.526c-0.814-2.176-7.701-24.995-7.701-24.995L276.355,332.115z"/>
<line fill="none" stroke="#BB591B" stroke-width="3" stroke-miterlimit="10" x1="282.374" y1="330.474" x2="260.795" y2="340.246"/>
</svg>
