<?xml version="1.0" encoding="utf-8"?>
<!DOCTYPE svg PUBLIC "-//W3C//DTD SVG 1.1//EN" "http://www.w3.org/Graphics/SVG/1.1/DTD/svg11.dtd">
<svg version="1.1" id="Capa_1" xmlns="http://www.w3.org/2000/svg" xmlns:xlink="http://www.w3.org/1999/xlink" x="0px" y="0px"
	 width="452px" height="560px" viewBox="0 0 452 560" enable-background="new 0 0 424.479 556.472"
	 xml:space="preserve">
<g>
	<g>
		<linearGradient id="SVGID_1_" gradientUnits="userSpaceOnUse" x1="79.9355" y1="509.8442" x2="363.1675" y2="509.8442">
			<stop  offset="0" style="stop-color:#FEE802"/>
			<stop  offset="0.5566" style="stop-color:#9A692D"/>
			<stop  offset="1" style="stop-color:#ECBA09"/>
		</linearGradient>
		<path fill="#fee802" d="M79.936,506.415c0,16.356,63.4,29.62,141.616,29.62c78.206,0,141.616-13.264,141.616-29.62v-22.762
			H79.936V506.415z"/>
		<path fill="#FEE802" d="M363.167,483.653c0,16.362-63.41,29.62-141.616,29.62c-78.216,0-141.616-13.258-141.616-29.62
			s63.4-29.619,141.616-29.619C299.757,454.034,363.167,467.291,363.167,483.653z"/>
		<linearGradient id="SVGID_2_" gradientUnits="userSpaceOnUse" x1="224.6431" y1="483.6528" x2="363.1675" y2="483.6528">
			<stop  offset="0" style="stop-color:#FEE802"/>
			<stop  offset="1" style="stop-color:#ECBA09"/>
		</linearGradient>
		<path fill="#fee802" d="M224.643,454.04v59.227c76.784-0.343,138.524-13.474,138.524-29.613
			C363.167,467.507,301.427,454.383,224.643,454.04z"/>
		<path fill="#FBDF0B" d="M310.201,483.653c0,10.242-39.684,18.538-88.649,18.538s-88.649-8.296-88.649-18.538
			s39.684-18.544,88.649-18.544S310.201,473.411,310.201,483.653z"/>
		<path fill="#B38C39" d="M221.551,460.891c-60.104,0-108.815,10.191-108.815,22.762s48.711,22.762,108.815,22.762
			c60.102,0,108.815-10.191,108.815-22.762S281.653,460.891,221.551,460.891z M221.551,504.265
			c-54.427,0-98.547-9.225-98.547-20.612s44.121-20.618,98.547-20.618c54.424,0,98.546,9.23,98.546,20.618
			S275.976,504.265,221.551,504.265z"/>
	</g>
	<path fill="#FFFFFF" d="M159.048,521.39c-21.41-9.339-22.819-8.875-34.464,11.375c9.336-21.414,8.871-22.819-11.378-34.461
		c21.407,9.332,22.819,8.867,34.461-11.381C138.335,508.336,138.8,509.742,159.048,521.39z"/>
</g>
<path fill="#4C141A" class='hair' d="M371.224,159.314c0,0,5.759-140.601-145.178-141.302v-0.016c-0.189,0-0.371,0.008-0.56,0.008
	c-0.188,0-0.369-0.008-0.559-0.008v0.016c-150.97,0.701-151.81,141.302-151.81,141.302s-1.243,95.327-0.415,116.878
	c0.829,21.551,1.658,21.966,7.045,32.326s35.228,27.768,17.821,12.02c-17.406-15.749-10.361-44.346-8.289-53.878
	c2.072-9.532,4.559,0,4.559,0s0.829,23.209,2.901,38.129c2.072,14.919,34.813,33.154,20.308,19.063
	c-14.506-14.091-10.775-31.497-10.361-44.345c0.415-12.848,4.145-2.9,4.145-2.9c0,32.856,21.391,43.92,23.795,45.06l-0.876,0.113
	h1.119h174.604h1.118l-0.875-0.113c2.404-1.14,23.794-12.203,23.794-45.06c0,0,3.729-9.947,4.145,2.9s4.145,30.254-10.361,44.345
	c-14.505,14.091,18.235-4.145,20.308-19.063c2.072-14.92,2.901-38.129,2.901-38.129s2.486-9.532,4.559,0s9.118,38.129-8.288,53.878
	c-17.407,15.748,12.433-1.659,17.821-12.02c5.387-10.36,6.217-10.775,7.045-32.326C372.468,254.641,371.224,159.314,371.224,159.314
	z"/>
<rect x="189.599" y="364.575" fill="#F7C0A2" class='skin' width="27.837" height="84.89"/>
<rect x="229.184" y="364.575" fill="#F7C0A2" class='skin' width="29.187" height="84.89"/>
<rect x="189.599" y="403.705" fill="#FFFFFF" width="27.837" height="84.889"/>
<rect x="229.184" y="403.705" fill="#FFFFFF" width="29.187" height="84.889"/>
<rect x="189.599" y="407.02" fill="#E13041" class='shirt' width="27.837" height="84.889"/>
<rect x="229.184" y="407.02" fill="#E13041" class='shirt' width="29.187" height="84.889"/>
<circle fill="#E3613E" class='pants' cx="164.885" cy="372.077" r="6.877"/>
<circle fill="#E3613E" class='pants' cx="177.043" cy="377.05" r="6.877"/>
<circle fill="#E3613E" class='pants' cx="189.6" cy="380.415" r="6.877"/>
<circle fill="#E3613E" class='pants' cx="203.354" cy="382.426" r="6.877"/>
<circle fill="#E3613E" class='pants' cx="217.108" cy="383.928" r="6.877"/>
<circle fill="#E3613E" class='pants' cx="230.862" cy="385.22" r="6.877"/>
<circle fill="#E3613E" class='pants' cx="244.616" cy="383.928" r="6.877"/>
<circle fill="#E3613E" class='pants' cx="258.371" cy="382.426" r="6.877"/>
<circle fill="#E3613E" class='pants' cx="272.125" cy="378.342" r="6.877"/>
<circle fill="#E3613E" class='pants' cx="281.346" cy="373.538" r="6.877"/>
<path fill="#E3613E" class='pants' d="M168.544,493.645c0,0,3.941-29.377,24.84-29.377c20.897,0,24.052,29.377,24.052,29.377
	S196.538,512.174,168.544,493.645z"/>
<path fill="#E3613E" class='pants' d="M223.985,492.068c0,0,3.942-29.377,24.841-29.377c20.897,0,24.052,29.377,24.052,29.377
	S251.979,510.597,223.985,492.068z"/>
<path fill="#DF2E40" class='shirt' d="M182.654,310.177c0,0,2.186-36.666,23.887-36.666c21.702,0,29.312,0,29.312,0s23.058-1.048,23.058,36.251
	h-10.775c0,0,4.973,52.22,29.84,55.949c24.865,3.73-20.723,20.308-51.806,19.479c-31.083-0.829-84.96-11.19-59.679-21.965
	c25.281-10.776,26.109-36.472,26.939-53.049H182.654z"/>
<path fill="#F7C0A2" class='skin' d="M361.692,161.807c0-62.027-62.9-112.313-140.495-112.313S80.702,99.78,80.702,161.807
	c0,58.07,55.134,105.844,125.839,111.704c2.678,6.547,8.226,11.062,14.656,11.062c6.43,0,11.978-4.515,14.656-11.062
	C306.559,267.651,361.692,219.877,361.692,161.807z"/>
<path fill="#4C141A" class='hair' d="M98.108,148.545l67.14-7.874c0,0,13.676-91.591,13.676-75.842c0,15.749,0,75.013,0,75.013l8.289,0.415
	c0,0,1.658-71.698,3.73-54.706c2.072,16.992,3.315,54.706,3.315,54.706l152.514,12.433l-3.73,42.688c0,0,15.189-22.93,11.531,1.797
	c-3.656,24.727,11.678-15.474,11.678-15.474s0.828-64.652-21.137-88.69c-21.966-24.038-86.204-59.679-140.909-53.048
	c-54.707,6.631-134.693,55.949-126.819,122.26c7.874,66.311,33.985,69.626,33.985,69.626s-39.373-68.797-10.363-37.714
	L98.108,148.545z"/>
<g>
	<g>
		<path d="M295.765,148.722c0.008,0.015,0.015,0.03,0.022,0.044c0.583,1.192,2.166,1.72,3.388,1.378
			c1.38-0.385,2.369-1.737,3.339-2.708c1.934-1.938,4.023-3.633,6.368-5.051c9.474-5.728,17.746,0.687,23.253,8.643
			c2.187,3.158,7.39,0.162,5.182-3.028c-6.069-8.768-14.574-16.093-25.844-13.222c-3.544,0.903-6.829,2.969-9.646,5.241
			c-1.241,1-2.419,2.059-3.556,3.176c-0.955,0.939-2.571,1.69-0.69,1.166c1.129,0.459,2.258,0.919,3.388,1.379
			c-0.008-0.015-0.015-0.03-0.021-0.044C299.247,142.218,294.073,145.261,295.765,148.722L295.765,148.722z"/>
	</g>
</g>
<g>
	<g>
		<path d="M116.697,145.407c0.007,0.015,0.014,0.029,0.021,0.044c0.583,1.192,2.167,1.72,3.388,1.378
			c1.38-0.385,2.37-1.737,3.339-2.708c1.934-1.938,4.024-3.634,6.369-5.052c9.473-5.728,17.747,0.687,23.253,8.643
			c2.186,3.158,7.389,0.162,5.181-3.028c-6.069-8.768-14.574-16.093-25.843-13.222c-3.544,0.903-6.83,2.97-9.647,5.241
			c-1.241,1-2.419,2.059-3.555,3.176c-0.955,0.939-2.572,1.691-0.691,1.166c1.129,0.459,2.259,0.919,3.388,1.379
			c-0.007-0.015-0.015-0.03-0.022-0.044C120.177,138.903,115.003,141.946,116.697,145.407L116.697,145.407z"/>
	</g>
</g>
<radialGradient id="SVGID_3_" cx="145.6284" cy="188.3657" r="28.0111" gradientUnits="userSpaceOnUse">
	<stop  offset="0.5468" style="stop-color:#3766AC"/>
	<stop  offset="1" style="stop-color:#1C2B6F"/>
</radialGradient>
<path fill="#3664aa" stroke="#000000" stroke-miterlimit="10" d="M169.928,188.37c0,17.271-10.879,31.281-24.298,31.281
	c-13.421,0-24.302-14.01-24.302-31.281c0-17.284,10.881-31.29,24.302-31.29C159.049,157.08,169.928,171.086,169.928,188.37z"/>
<path d="M159.172,189.905c0,7.709-4.856,13.965-10.85,13.965s-10.85-6.256-10.85-13.965c0-7.722,4.857-13.974,10.85-13.974
	S159.172,182.183,159.172,189.905z"/>
<path fill="#FFFFFF" d="M159.261,179.437c0,4.281-3.465,7.745-7.745,7.745c-4.275,0-7.741-3.464-7.741-7.745
	c0-4.274,3.466-7.745,7.741-7.745C155.796,171.692,159.261,175.163,159.261,179.437z"/>
<path fill="#FFFFFF" d="M156.339,203.254c0,2.662-2.162,4.821-4.823,4.821c-2.66,0-4.821-2.16-4.821-4.821
	c0-2.667,2.161-4.827,4.821-4.827C154.178,198.427,156.339,200.587,156.339,203.254z"/>
<radialGradient id="SVGID_4_" cx="306.5122" cy="188.3657" r="28.0111" gradientUnits="userSpaceOnUse">
	<stop  offset="0.5468" style="stop-color:#3766AC"/>
	<stop  offset="1" style="stop-color:#1C2B6F"/>
</radialGradient>
<path fill="#3664aa" stroke="#000000" stroke-miterlimit="10" d="M330.812,188.37c0,17.271-10.88,31.281-24.299,31.281
	c-13.42,0-24.301-14.01-24.301-31.281c0-17.284,10.881-31.29,24.301-31.29C319.932,157.08,330.812,171.086,330.812,188.37z"/>
<path d="M320.056,189.905c0,7.709-4.857,13.965-10.851,13.965c-5.992,0-10.85-6.256-10.85-13.965c0-7.722,4.857-13.974,10.85-13.974
	C315.199,175.931,320.056,182.183,320.056,189.905z"/>
<path fill="#FFFFFF" d="M320.145,179.437c0,4.281-3.465,7.745-7.745,7.745c-4.275,0-7.741-3.464-7.741-7.745
	c0-4.274,3.466-7.745,7.741-7.745C316.68,171.692,320.145,175.163,320.145,179.437z"/>
<path fill="#FFFFFF" d="M317.223,203.254c0,2.662-2.162,4.821-4.823,4.821c-2.66,0-4.82-2.16-4.82-4.821
	c0-2.667,2.16-4.827,4.82-4.827C315.061,198.427,317.223,200.587,317.223,203.254z"/>
<path d="M117.725,155.315l7.727,15.623l-4.124,10.351c0,0,5.237,1.441,8.83-5.358c3.592-6.799,8.483-12.877,16.537-11.219
	c8.054,1.657,6.836,6.579,16.701,2.321c0,0-5.252-12.611-22.836-9.264l-7.361-8.256l-2.211,9.118L117.725,155.315z"/>
<path d="M335.236,155.315l-7.727,15.623l4.124,10.351c0,0-5.238,1.441-8.83-5.358c-3.593-6.799-8.483-12.877-16.537-11.219
	c-8.054,1.657-6.837,6.579-16.701,2.321c0,0,5.252-12.611,22.837-9.264l7.361-8.256l2.211,9.118L335.236,155.315z"/>
<g>
	<g>
		<path fill="#E14046" d="M189.858,234.361c2.539,6.178,11.011,11.754,16.794,14.179c16.14,6.766,31.537-1.821,43.108-13.131
			c1.039-1.016-0.553-2.605-1.591-1.591c-11.143,10.89-26.006,19.292-41.465,12.296c-4.812-2.177-12.77-7.711-14.676-12.351
			C191.485,232.44,189.307,233.019,189.858,234.361L189.858,234.361z"/>
	</g>
</g>
<g>
	<circle fill="#F9F956" cx="221.198" cy="314.716" r="5.644"/>
	<path fill="#E7722D" d="M226.892,314.721c0,0-0.014,0.138-0.04,0.396c-0.05,0.255-0.004,0.645-0.188,1.108
		c-0.078,0.232-0.14,0.5-0.253,0.771c-0.134,0.264-0.28,0.548-0.435,0.852c-0.185,0.285-0.427,0.561-0.66,0.868
		c-0.265,0.275-0.581,0.535-0.901,0.816c-0.71,0.455-1.562,0.9-2.554,0.998c-0.255,0.023-0.474,0.082-0.771,0.076
		c-0.243-0.021-0.489-0.041-0.738-0.063c-0.246-0.001-0.504-0.07-0.769-0.153c-0.259-0.083-0.539-0.138-0.787-0.252
		c-1.005-0.438-1.898-1.177-2.585-2.108c-0.644-0.969-0.995-2.124-1.059-3.311c0.069-0.641,0.023-1.104,0.243-1.732
		c0.129-0.619,0.437-1.123,0.708-1.648c0.662-0.979,1.563-1.769,2.596-2.25c1.048-0.393,2.168-0.635,3.18-0.43
		c0.455,0.016,0.971,0.221,1.436,0.39c0.47,0.165,0.823,0.476,1.205,0.691c0.326,0.299,0.643,0.576,0.907,0.868
		c0.229,0.325,0.465,0.616,0.644,0.914c0.146,0.315,0.283,0.61,0.409,0.883c0.103,0.279,0.154,0.553,0.222,0.788
		c0.162,0.468,0.116,0.866,0.157,1.124c0.02,0.261,0.03,0.399,0.03,0.399V314.721z M226.792,314.716c0,0-0.018-0.136-0.05-0.392
		c-0.058-0.249-0.015-0.642-0.217-1.083c-0.087-0.222-0.158-0.477-0.279-0.733c-0.152-0.24-0.316-0.5-0.492-0.777
		c-0.203-0.254-0.459-0.493-0.7-0.759c-0.277-0.231-0.598-0.438-0.913-0.662c-0.363-0.144-0.72-0.365-1.106-0.461
		c-0.391-0.088-0.744-0.233-1.25-0.234c-0.878-0.118-1.791,0.084-2.661,0.426c-0.867,0.38-1.628,1.024-2.234,1.819
		c-0.242,0.435-0.533,0.864-0.646,1.333c-0.206,0.403-0.211,1.073-0.289,1.526c0.026,1.03,0.292,2.051,0.832,2.93
		c0.583,0.841,1.354,1.533,2.247,1.959c0.217,0.11,0.45,0.157,0.671,0.241c0.22,0.082,0.443,0.158,0.702,0.17
		c0.248,0.028,0.494,0.058,0.736,0.086c0.188,0.011,0.45-0.026,0.667-0.036c0.921-0.035,1.729-0.407,2.443-0.781
		c0.319-0.243,0.643-0.467,0.917-0.716c0.238-0.283,0.488-0.538,0.683-0.807c0.167-0.289,0.322-0.56,0.466-0.81
		c0.11-0.265,0.17-0.524,0.247-0.75c0.18-0.446,0.136-0.847,0.186-1.099c0.026-0.258,0.04-0.396,0.04-0.396V314.716z"/>
</g>
<g>
	<circle fill="#F9F956" cx="231.425" cy="319.667" r="5.644"/>
	<path fill="#E7722D" d="M237.119,319.671c0,0-0.014,0.138-0.04,0.396c-0.05,0.255-0.004,0.645-0.188,1.108
		c-0.078,0.232-0.14,0.5-0.253,0.771c-0.134,0.264-0.279,0.548-0.435,0.852c-0.185,0.285-0.427,0.56-0.659,0.867
		c-0.266,0.276-0.582,0.536-0.901,0.816c-0.711,0.456-1.563,0.9-2.554,0.998c-0.255,0.023-0.474,0.082-0.771,0.076
		c-0.243-0.021-0.489-0.041-0.738-0.063c-0.246-0.001-0.505-0.071-0.769-0.153c-0.259-0.083-0.539-0.138-0.787-0.252
		c-1.005-0.438-1.898-1.177-2.584-2.108c-0.645-0.969-0.995-2.124-1.059-3.311c0.069-0.64,0.023-1.104,0.243-1.732
		c0.129-0.619,0.437-1.123,0.708-1.648c0.663-0.978,1.564-1.769,2.597-2.249c1.048-0.393,2.168-0.635,3.18-0.43
		c0.455,0.016,0.971,0.221,1.436,0.39c0.47,0.165,0.823,0.476,1.205,0.691c0.326,0.299,0.643,0.576,0.907,0.868
		c0.229,0.325,0.465,0.616,0.643,0.914c0.146,0.315,0.283,0.61,0.41,0.883c0.103,0.279,0.154,0.553,0.222,0.788
		c0.162,0.468,0.116,0.866,0.157,1.123c0.02,0.262,0.03,0.4,0.03,0.4V319.671z M237.019,319.667c0,0-0.018-0.136-0.05-0.392
		c-0.059-0.249-0.015-0.642-0.217-1.083c-0.087-0.222-0.158-0.477-0.279-0.733c-0.152-0.24-0.316-0.499-0.492-0.777
		c-0.203-0.254-0.459-0.493-0.7-0.759c-0.276-0.231-0.598-0.438-0.913-0.662c-0.363-0.144-0.72-0.365-1.106-0.461
		c-0.391-0.088-0.744-0.233-1.25-0.234c-0.878-0.118-1.791,0.084-2.661,0.425c-0.867,0.381-1.628,1.024-2.235,1.819
		c-0.241,0.435-0.532,0.864-0.646,1.333c-0.207,0.403-0.211,1.073-0.29,1.526c0.026,1.03,0.292,2.051,0.831,2.93
		c0.583,0.841,1.354,1.533,2.247,1.959c0.217,0.11,0.45,0.157,0.671,0.241c0.22,0.082,0.444,0.158,0.703,0.17
		c0.248,0.028,0.493,0.058,0.735,0.086c0.188,0.012,0.45-0.026,0.667-0.036c0.921-0.034,1.729-0.407,2.443-0.78
		c0.319-0.244,0.644-0.468,0.917-0.716c0.238-0.284,0.488-0.538,0.683-0.807c0.167-0.289,0.322-0.56,0.466-0.81
		c0.11-0.265,0.17-0.524,0.247-0.75c0.18-0.446,0.136-0.847,0.186-1.099c0.026-0.258,0.04-0.396,0.04-0.396V319.667z"/>
</g>
<g>
	<circle fill="#F9F956" cx="210.981" cy="319.667" r="5.644"/>
	<path fill="#E7722D" d="M216.675,319.671c0,0-0.014,0.138-0.04,0.396c-0.05,0.255-0.004,0.645-0.188,1.108
		c-0.078,0.232-0.14,0.5-0.253,0.771c-0.134,0.264-0.279,0.548-0.435,0.852c-0.185,0.285-0.427,0.56-0.66,0.867
		c-0.266,0.276-0.581,0.536-0.901,0.816c-0.711,0.456-1.562,0.9-2.554,0.998c-0.255,0.023-0.474,0.082-0.771,0.076
		c-0.243-0.021-0.489-0.041-0.738-0.063c-0.246-0.001-0.505-0.071-0.769-0.153c-0.258-0.083-0.539-0.138-0.787-0.252
		c-1.006-0.438-1.898-1.177-2.585-2.108c-0.645-0.968-0.995-2.124-1.059-3.311c0.069-0.64,0.023-1.104,0.243-1.732
		c0.129-0.619,0.437-1.123,0.708-1.648c0.663-0.979,1.564-1.769,2.597-2.249c1.049-0.393,2.168-0.635,3.181-0.43
		c0.455,0.016,0.97,0.221,1.436,0.39c0.47,0.165,0.823,0.476,1.205,0.691c0.325,0.299,0.643,0.576,0.907,0.868
		c0.229,0.325,0.465,0.616,0.643,0.914c0.146,0.315,0.283,0.61,0.41,0.883c0.103,0.279,0.154,0.552,0.222,0.788
		c0.162,0.468,0.116,0.866,0.157,1.123c0.02,0.262,0.03,0.4,0.03,0.4V319.671z M216.576,319.667c0,0-0.018-0.136-0.05-0.392
		c-0.059-0.249-0.015-0.642-0.217-1.083c-0.087-0.222-0.158-0.477-0.279-0.733c-0.152-0.24-0.316-0.499-0.492-0.777
		c-0.203-0.254-0.459-0.493-0.7-0.759c-0.276-0.231-0.598-0.438-0.913-0.662c-0.363-0.144-0.72-0.365-1.105-0.461
		c-0.391-0.088-0.744-0.233-1.251-0.234c-0.877-0.118-1.791,0.084-2.661,0.425c-0.867,0.381-1.628,1.024-2.235,1.819
		c-0.241,0.435-0.532,0.864-0.646,1.333c-0.207,0.403-0.211,1.073-0.29,1.526c0.026,1.03,0.292,2.051,0.831,2.93
		c0.583,0.841,1.354,1.533,2.247,1.959c0.218,0.11,0.45,0.157,0.672,0.241c0.22,0.082,0.443,0.158,0.702,0.169
		c0.248,0.029,0.493,0.059,0.735,0.087c0.189,0.012,0.45-0.026,0.668-0.036c0.921-0.034,1.729-0.407,2.443-0.78
		c0.319-0.244,0.643-0.468,0.917-0.716c0.238-0.284,0.488-0.538,0.683-0.807c0.167-0.289,0.322-0.56,0.466-0.81
		c0.111-0.265,0.171-0.524,0.248-0.75c0.18-0.446,0.136-0.847,0.186-1.099c0.026-0.258,0.04-0.396,0.04-0.396V319.667z"/>
</g>
<g>
	<circle fill="#F9F956" cx="207.887" cy="330.092" r="5.644"/>
	<path fill="#E7722D" d="M213.582,330.097c0,0-0.014,0.138-0.04,0.396c-0.05,0.255-0.004,0.645-0.188,1.108
		c-0.078,0.232-0.14,0.5-0.253,0.771c-0.134,0.264-0.28,0.548-0.435,0.852c-0.185,0.285-0.427,0.561-0.66,0.868
		c-0.266,0.275-0.581,0.535-0.901,0.816c-0.71,0.456-1.562,0.9-2.554,0.998c-0.255,0.023-0.474,0.082-0.771,0.076
		c-0.243-0.021-0.489-0.041-0.738-0.063c-0.246-0.001-0.505-0.071-0.769-0.153c-0.258-0.083-0.539-0.138-0.787-0.252
		c-1.006-0.438-1.898-1.177-2.585-2.108c-0.644-0.969-0.995-2.124-1.059-3.311c0.069-0.641,0.023-1.104,0.243-1.732
		c0.129-0.619,0.437-1.123,0.708-1.648c0.662-0.979,1.564-1.769,2.597-2.25c1.048-0.393,2.168-0.635,3.18-0.43
		c0.455,0.016,0.971,0.221,1.436,0.389c0.47,0.166,0.823,0.476,1.205,0.692c0.326,0.299,0.643,0.576,0.907,0.868
		c0.229,0.325,0.465,0.616,0.644,0.914c0.146,0.315,0.283,0.61,0.409,0.883c0.103,0.279,0.154,0.552,0.222,0.788
		c0.162,0.468,0.116,0.866,0.157,1.123c0.02,0.262,0.03,0.4,0.03,0.4V330.097z M213.482,330.092c0,0-0.018-0.136-0.05-0.392
		c-0.058-0.249-0.015-0.642-0.217-1.083c-0.087-0.222-0.158-0.477-0.279-0.733c-0.152-0.24-0.316-0.5-0.492-0.777
		c-0.203-0.254-0.459-0.493-0.7-0.759c-0.277-0.231-0.598-0.438-0.913-0.662c-0.363-0.144-0.72-0.365-1.106-0.461
		c-0.391-0.088-0.744-0.233-1.251-0.234c-0.877-0.118-1.791,0.084-2.661,0.426c-0.867,0.381-1.628,1.024-2.235,1.819
		c-0.241,0.435-0.533,0.864-0.646,1.333c-0.206,0.403-0.211,1.073-0.289,1.526c0.026,1.03,0.292,2.051,0.832,2.93
		c0.583,0.841,1.354,1.533,2.247,1.959c0.218,0.11,0.45,0.157,0.672,0.241c0.22,0.082,0.443,0.158,0.702,0.17
		c0.248,0.028,0.493,0.058,0.736,0.086c0.188,0.012,0.449-0.026,0.667-0.036c0.921-0.034,1.729-0.407,2.443-0.781
		c0.319-0.243,0.643-0.467,0.917-0.716c0.238-0.283,0.488-0.538,0.683-0.806c0.167-0.29,0.322-0.561,0.466-0.811
		c0.11-0.265,0.17-0.524,0.247-0.75c0.18-0.446,0.137-0.847,0.186-1.099c0.026-0.258,0.04-0.396,0.04-0.396V330.092z"/>
</g>
<g>
	<circle fill="#F9F956" cx="234.614" cy="330.092" r="5.644"/>
	<path fill="#E7722D" d="M240.308,330.097c0,0-0.014,0.138-0.04,0.396c-0.05,0.255-0.004,0.645-0.188,1.108
		c-0.078,0.232-0.14,0.5-0.253,0.771c-0.134,0.264-0.279,0.548-0.435,0.852c-0.185,0.285-0.427,0.561-0.659,0.867
		c-0.266,0.276-0.581,0.536-0.901,0.817c-0.711,0.455-1.562,0.9-2.554,0.998c-0.255,0.023-0.474,0.082-0.771,0.076
		c-0.243-0.021-0.489-0.041-0.738-0.063c-0.246-0.001-0.505-0.07-0.769-0.153c-0.259-0.083-0.539-0.138-0.787-0.252
		c-1.006-0.438-1.898-1.177-2.585-2.108c-0.644-0.969-0.995-2.124-1.059-3.311c0.069-0.641,0.023-1.104,0.243-1.732
		c0.129-0.619,0.437-1.123,0.708-1.648c0.662-0.979,1.564-1.769,2.596-2.25c1.049-0.393,2.168-0.635,3.181-0.43
		c0.455,0.016,0.971,0.221,1.436,0.39c0.47,0.165,0.823,0.476,1.205,0.691c0.326,0.299,0.643,0.576,0.907,0.868
		c0.229,0.325,0.465,0.616,0.643,0.914c0.146,0.315,0.283,0.61,0.41,0.883c0.103,0.279,0.154,0.552,0.222,0.788
		c0.162,0.468,0.116,0.866,0.157,1.123c0.02,0.262,0.03,0.4,0.03,0.4V330.097z M240.208,330.092c0,0-0.018-0.136-0.05-0.392
		c-0.059-0.249-0.015-0.642-0.217-1.083c-0.087-0.222-0.158-0.477-0.279-0.733c-0.152-0.24-0.316-0.499-0.492-0.777
		c-0.204-0.254-0.459-0.493-0.701-0.759c-0.276-0.231-0.598-0.438-0.913-0.662c-0.363-0.144-0.72-0.365-1.105-0.461
		c-0.391-0.088-0.744-0.233-1.251-0.234c-0.877-0.118-1.791,0.084-2.661,0.426c-0.867,0.381-1.628,1.024-2.235,1.819
		c-0.241,0.435-0.533,0.864-0.646,1.333c-0.206,0.403-0.211,1.073-0.289,1.526c0.026,1.03,0.292,2.051,0.832,2.93
		c0.583,0.841,1.354,1.533,2.247,1.959c0.218,0.11,0.45,0.157,0.672,0.241c0.219,0.082,0.443,0.158,0.702,0.17
		c0.248,0.029,0.493,0.058,0.735,0.086c0.188,0.012,0.45-0.026,0.668-0.036c0.921-0.035,1.729-0.407,2.442-0.781
		c0.319-0.243,0.644-0.467,0.917-0.716c0.238-0.283,0.488-0.538,0.683-0.807c0.167-0.289,0.322-0.56,0.466-0.81
		c0.11-0.265,0.17-0.524,0.247-0.75c0.18-0.446,0.136-0.847,0.186-1.099c0.026-0.258,0.04-0.396,0.04-0.396V330.092z"/>
</g>
<path fill="#F7C0A2" class='skin' d="M325.393,361.645l-11.089-1.056c-0.813-0.347-1.123-0.712-0.652-1.095h11.627
	c0.655,0,1.187-0.715,1.187-1.603c0-0.883-0.531-1.599-1.187-1.599h-4.823c-10.189-0.402-13.309-0.716-8.678-1.253h11.429
	c0.655,0,1.187-0.531,1.187-1.189c0-0.653-0.531-1.185-1.187-1.185h-16.588c-0.087,0-0.165,0.032-0.246,0.049
	c-3.336-0.178-6.63-0.326-9.333-0.402c-10.223-0.277-40.338-42.551-40.338-42.551h-8.565c0,0,0.408,3.339,2.427,14.687
	c2.019,11.349,35.702,33.116,37.661,34.774s1.91,4.695-1.959,5.978c-3.869,1.282,1.759,6.705,3.315,4.973
	c1.558-1.731,10.776-2.939,17.961-2.387c2.762,0.214,5.883,0.629,8.548,0.92l5.308,0.853c0.647,0.104,1.285-0.519,1.427-1.393
	c0.139-0.875-0.271-1.665-0.918-1.771l-3.736-0.599c-1.87-0.558-3.563-0.735-3.722-1.222c-0.088-0.268,0.813-0.427,2.152-0.55
	l8.49,0.81c0.652,0.062,1.25-0.599,1.334-1.483C326.505,362.471,326.045,361.709,325.393,361.645z"/>
<path fill="#F7C0A2" class='skin' d="M116.846,361.645l11.09-1.056c0.813-0.347,1.124-0.712,0.652-1.095h-11.626
	c-0.656,0-1.187-0.715-1.187-1.603c0-0.883,0.531-1.599,1.187-1.599h4.823c10.189-0.402,13.309-0.716,8.677-1.253h-11.428
	c-0.656,0-1.187-0.531-1.187-1.189c0-0.653,0.531-1.185,1.187-1.185h16.587c0.087,0,0.165,0.032,0.246,0.049
	c3.336-0.178,6.63-0.326,9.333-0.402c10.223-0.277,40.338-42.551,40.338-42.551h8.565c0,0-0.408,3.339-2.426,14.687
	c-2.019,11.349-35.702,33.116-37.661,34.774c-1.959,1.658-1.911,4.695,1.958,5.978c3.87,1.282-1.758,6.705-3.315,4.973
	c-1.557-1.731-10.775-2.939-17.96-2.387c-2.762,0.214-5.883,0.629-8.548,0.92l-5.309,0.853c-0.647,0.104-1.285-0.519-1.426-1.393
	c-0.139-0.875,0.271-1.665,0.918-1.771l3.736-0.599c1.87-0.558,3.563-0.735,3.722-1.222c0.087-0.268-0.813-0.427-2.153-0.55
	l-8.49,0.81c-0.652,0.062-1.25-0.599-1.333-1.483C115.733,362.471,116.193,361.709,116.846,361.645z"/>
<path fill="#DB3E55" class='shirt' d="M168.544,490.329c0,0,3.941-29.377,24.84-29.377c20.897,0,24.052,29.377,24.052,29.377
	S196.538,508.859,168.544,490.329z"/>
<path fill="#DB3E55" class='shirt' d="M223.985,488.752c0,0,3.942-29.377,24.841-29.377c20.897,0,24.052,29.377,24.052,29.377
	S251.979,507.282,223.985,488.752z"/>
<g>
	<circle fill="#F9F956" cx="231.425" cy="337.588" r="5.644"/>
	<path fill="#E7722D" d="M237.019,337.593c0,0-0.014-0.138-0.04-0.396c-0.05-0.252-0.006-0.652-0.186-1.099
		c-0.077-0.226-0.137-0.485-0.247-0.75c-0.144-0.25-0.3-0.521-0.466-0.81c-0.195-0.269-0.445-0.522-0.683-0.807
		c-0.274-0.248-0.598-0.472-0.917-0.716c-0.713-0.373-1.521-0.746-2.442-0.78c-0.218-0.01-0.479-0.047-0.667-0.036
		c-0.243,0.028-0.488,0.057-0.736,0.086c-0.259,0.012-0.482,0.088-0.702,0.17c-0.221,0.084-0.454,0.131-0.671,0.241
		c-0.893,0.426-1.665,1.118-2.248,1.959c-0.539,0.878-0.805,1.899-0.831,2.93c0.078,0.452,0.083,1.122,0.289,1.525
		c0.113,0.469,0.404,0.898,0.646,1.333c0.606,0.795,1.368,1.438,2.235,1.819c0.87,0.341,1.783,0.543,2.661,0.425
		c0.507-0.001,0.86-0.146,1.251-0.233c0.386-0.097,0.743-0.318,1.105-0.461c0.315-0.224,0.636-0.432,0.913-0.663
		c0.241-0.265,0.497-0.504,0.7-0.759c0.176-0.277,0.34-0.537,0.492-0.776c0.122-0.257,0.192-0.512,0.279-0.733
		c0.202-0.441,0.158-0.834,0.217-1.083c0.032-0.256,0.05-0.392,0.05-0.392V337.593z M237.119,337.588c0,0-0.01,0.139-0.03,0.399
		c-0.041,0.258,0.005,0.656-0.157,1.124c-0.068,0.235-0.119,0.509-0.222,0.788c-0.126,0.272-0.264,0.567-0.41,0.883
		c-0.178,0.298-0.414,0.589-0.644,0.914c-0.264,0.292-0.582,0.569-0.907,0.868c-0.382,0.216-0.735,0.525-1.205,0.691
		c-0.465,0.168-0.981,0.373-1.436,0.389c-1.012,0.205-2.131-0.037-3.18-0.43c-1.032-0.48-1.934-1.271-2.596-2.249
		c-0.271-0.525-0.579-1.029-0.708-1.648c-0.22-0.629-0.174-1.092-0.243-1.732c0.063-1.187,0.415-2.342,1.059-3.31
		c0.687-0.932,1.58-1.671,2.585-2.108c0.248-0.114,0.528-0.169,0.787-0.252c0.264-0.083,0.523-0.152,0.769-0.153
		c0.249-0.021,0.495-0.042,0.738-0.063c0.297-0.006,0.515,0.053,0.771,0.076c0.992,0.098,1.843,0.542,2.554,0.998
		c0.32,0.28,0.636,0.541,0.901,0.816c0.233,0.308,0.475,0.583,0.66,0.868c0.155,0.304,0.3,0.588,0.435,0.851
		c0.113,0.271,0.175,0.538,0.253,0.771c0.183,0.464,0.138,0.854,0.188,1.108c0.026,0.258,0.04,0.396,0.04,0.396V337.588z"/>
</g>
<g>
	<circle fill="#F9F956" cx="221.198" cy="342.539" r="5.644"/>
	<path fill="#E7722D" d="M226.792,342.543c0,0-0.014-0.138-0.04-0.396c-0.049-0.252-0.006-0.652-0.186-1.099
		c-0.077-0.226-0.137-0.485-0.248-0.75c-0.144-0.25-0.3-0.521-0.466-0.81c-0.195-0.269-0.445-0.522-0.683-0.807
		c-0.274-0.248-0.598-0.472-0.917-0.716c-0.713-0.373-1.522-0.746-2.443-0.78c-0.218-0.01-0.479-0.048-0.667-0.036
		c-0.242,0.028-0.488,0.058-0.736,0.086c-0.259,0.012-0.482,0.088-0.702,0.17c-0.221,0.084-0.454,0.131-0.671,0.241
		c-0.893,0.426-1.665,1.118-2.247,1.96c-0.539,0.878-0.805,1.898-0.831,2.929c0.078,0.454,0.083,1.123,0.29,1.526
		c0.113,0.469,0.404,0.898,0.646,1.333c0.606,0.795,1.368,1.438,2.234,1.819c0.87,0.341,1.783,0.543,2.661,0.425
		c0.507-0.001,0.859-0.146,1.25-0.234c0.386-0.096,0.743-0.317,1.106-0.461c0.315-0.224,0.636-0.431,0.913-0.662
		c0.241-0.266,0.498-0.505,0.701-0.759c0.175-0.278,0.339-0.537,0.491-0.777c0.122-0.257,0.192-0.512,0.279-0.733
		c0.202-0.441,0.158-0.834,0.217-1.083c0.032-0.256,0.05-0.392,0.05-0.392V342.543z M226.892,342.539c0,0-0.01,0.139-0.03,0.399
		c-0.041,0.258,0.005,0.656-0.157,1.124c-0.068,0.235-0.119,0.509-0.222,0.788c-0.126,0.272-0.264,0.567-0.41,0.883
		c-0.178,0.298-0.414,0.589-0.643,0.914c-0.264,0.292-0.582,0.569-0.907,0.868c-0.382,0.216-0.735,0.526-1.205,0.691
		c-0.465,0.169-0.981,0.374-1.436,0.39c-1.012,0.205-2.131-0.037-3.18-0.43c-1.032-0.48-1.934-1.271-2.597-2.249
		c-0.271-0.525-0.579-1.029-0.708-1.648c-0.22-0.629-0.174-1.092-0.243-1.732c0.063-1.187,0.415-2.342,1.059-3.311
		c0.687-0.931,1.579-1.671,2.584-2.108c0.248-0.114,0.528-0.169,0.787-0.252c0.264-0.082,0.523-0.152,0.769-0.153
		c0.249-0.021,0.495-0.042,0.738-0.063c0.297-0.006,0.516,0.053,0.771,0.076c0.992,0.098,1.843,0.542,2.554,0.998
		c0.32,0.28,0.636,0.541,0.901,0.816c0.233,0.308,0.475,0.583,0.66,0.868c0.155,0.304,0.3,0.588,0.435,0.851
		c0.113,0.271,0.175,0.538,0.253,0.771c0.183,0.464,0.138,0.854,0.188,1.108c0.026,0.258,0.04,0.396,0.04,0.396V342.539z"/>
</g>
<g>
	<circle fill="#F9F956" cx="210.981" cy="337.588" r="5.644"/>
	<path fill="#E7722D" d="M216.576,337.593c0,0-0.014-0.138-0.04-0.396c-0.05-0.252-0.006-0.652-0.186-1.099
		c-0.077-0.226-0.137-0.485-0.247-0.75c-0.144-0.25-0.3-0.521-0.466-0.81c-0.195-0.269-0.446-0.522-0.684-0.807
		c-0.274-0.248-0.598-0.472-0.917-0.716c-0.713-0.373-1.522-0.746-2.443-0.78c-0.218-0.01-0.479-0.048-0.667-0.036
		c-0.242,0.028-0.488,0.058-0.735,0.086c-0.259,0.012-0.483,0.088-0.702,0.17c-0.222,0.084-0.455,0.131-0.672,0.241
		c-0.893,0.426-1.665,1.118-2.248,1.959c-0.539,0.878-0.805,1.899-0.831,2.93c0.078,0.452,0.083,1.122,0.289,1.525
		c0.113,0.469,0.404,0.898,0.646,1.333c0.606,0.795,1.368,1.438,2.235,1.819c0.87,0.341,1.783,0.543,2.661,0.425
		c0.507-0.001,0.86-0.146,1.251-0.233c0.386-0.097,0.743-0.318,1.106-0.461c0.315-0.224,0.636-0.432,0.913-0.663
		c0.241-0.265,0.497-0.504,0.7-0.759c0.176-0.277,0.34-0.537,0.492-0.776c0.122-0.257,0.192-0.512,0.279-0.733
		c0.202-0.441,0.158-0.834,0.217-1.083c0.032-0.256,0.05-0.392,0.05-0.392V337.593z M216.675,337.588c0,0-0.01,0.139-0.03,0.4
		c-0.041,0.257,0.005,0.655-0.157,1.123c-0.068,0.235-0.119,0.509-0.222,0.788c-0.126,0.272-0.263,0.567-0.409,0.883
		c-0.178,0.298-0.414,0.589-0.644,0.914c-0.264,0.292-0.582,0.569-0.907,0.868c-0.382,0.216-0.735,0.525-1.205,0.691
		c-0.465,0.168-0.981,0.373-1.436,0.389c-1.012,0.205-2.132-0.037-3.18-0.43c-1.033-0.48-1.935-1.271-2.597-2.249
		c-0.271-0.525-0.579-1.029-0.708-1.648c-0.22-0.629-0.174-1.092-0.243-1.732c0.063-1.187,0.415-2.342,1.059-3.31
		c0.687-0.932,1.58-1.672,2.585-2.108c0.248-0.114,0.528-0.169,0.787-0.252c0.264-0.083,0.523-0.152,0.769-0.153
		c0.249-0.021,0.495-0.042,0.738-0.063c0.297-0.006,0.516,0.053,0.771,0.076c0.991,0.098,1.843,0.542,2.554,0.998
		c0.32,0.28,0.636,0.541,0.901,0.816c0.232,0.308,0.474,0.583,0.659,0.868c0.155,0.304,0.3,0.588,0.435,0.851
		c0.113,0.271,0.176,0.538,0.253,0.771c0.183,0.464,0.137,0.854,0.188,1.108c0.026,0.258,0.04,0.396,0.04,0.396V337.588z"/>
</g>
<g>
	<circle fill="#F9F956" cx="221.197" cy="327.168" r="9.532"/>
	<path fill="#E7722D" d="M230.779,327.169c0,0-0.012,0.235-0.034,0.673c-0.001,0.22-0.04,0.489-0.092,0.806
		c-0.035,0.32-0.119,0.678-0.229,1.074c-0.228,0.787-0.572,1.738-1.194,2.707c-0.617,0.967-1.49,1.964-2.659,2.782
		c-1.17,0.81-2.635,1.426-4.269,1.652c-0.412,0.044-0.817,0.08-1.258,0.082c-0.414-0.022-0.823-0.014-1.264-0.094
		c-0.879-0.098-1.725-0.364-2.562-0.707c-1.663-0.715-3.169-1.937-4.249-3.515c-0.534-0.792-0.947-1.671-1.251-2.59
		c-0.287-0.927-0.423-1.897-0.455-2.871c0.008-0.946,0.124-1.955,0.393-2.89c0.286-0.932,0.683-1.828,1.207-2.642
		c1.055-1.624,2.571-2.896,4.26-3.656c1.687-0.733,3.555-0.985,5.184-0.755c1.716,0.24,3.192,0.87,4.375,1.731
		c1.178,0.858,2.042,1.893,2.644,2.885c0.607,0.996,0.934,1.962,1.148,2.758c0.102,0.401,0.179,0.762,0.208,1.082
		c0.046,0.317,0.079,0.588,0.076,0.81C230.772,326.933,230.779,327.169,230.779,327.169z M230.679,327.167
		c0,0-0.017-0.231-0.047-0.666c-0.005-0.219-0.049-0.483-0.107-0.794c-0.041-0.313-0.131-0.664-0.247-1.053
		c-0.232-0.771-0.6-1.7-1.27-2.603c-0.651-0.906-1.549-1.817-2.707-2.524c-1.153-0.689-2.576-1.211-4.057-1.353
		c-1.562-0.126-3.174,0.072-4.697,0.759c-1.524,0.659-2.9,1.784-3.898,3.226c-0.493,0.726-0.873,1.53-1.157,2.372
		c-0.266,0.854-0.391,1.713-0.427,2.638c0.013,0.896,0.119,1.793,0.367,2.655c0.265,0.854,0.63,1.677,1.112,2.425
		c0.975,1.487,2.36,2.662,3.91,3.365c0.774,0.337,1.587,0.608,2.388,0.713c0.39,0.084,0.819,0.086,1.229,0.116
		c0.382,0.007,0.794-0.008,1.181-0.035c1.563-0.155,2.997-0.69,4.163-1.432c1.167-0.748,2.056-1.695,2.692-2.629
		c0.654-0.929,1.004-1.872,1.222-2.652c0.109-0.394,0.192-0.747,0.227-1.061c0.051-0.312,0.09-0.577,0.091-0.798
		C230.667,327.4,230.679,327.167,230.679,327.167z"/>
</g>
</svg>
